<svg xmlns="http://www.w3.org/2000/svg" viewBox="0 0 900 640" width="100%" height="100%">
  <defs>
    <pattern id="grid" width="20" height="20" patternUnits="userSpaceOnUse">
      <path d="M 20 0 L 0 0 0 20" fill="none" stroke="rgba(255, 255, 255, 0.04)" stroke-width="1"/>
    </pattern>
    <filter id="soft-glow" x="-20%" y="-20%" width="140%" height="140%">
      <feDropShadow dx="0" dy="10" stdDeviation="14" flood-color="#000" flood-opacity="0.5"/>
    </filter>
  </defs>

  <!-- Background Canvas -->
  <rect width="900" height="640" fill="#121815" rx="14"/>
  <rect width="900" height="640" fill="url(#grid)" rx="14"/>

  <!-- Compass Rose -->
  <g transform="translate(820, 75)" opacity="0.75">
    <circle cx="0" cy="0" r="22" fill="none" stroke="rgba(255,255,255,0.18)" stroke-width="1.5"/>
    <polygon points="0,-19 5,-5 0,0 -5,-5" fill="#e4a347"/>
    <polygon points="0,19 5,5 0,0 -5,5" fill="rgba(255,255,255,0.25)"/>
    <text x="0" y="-23" fill="#e4a347" font-family="'DM Sans', sans-serif" font-size="10" font-weight="700" text-anchor="middle">N</text>
  </g>

  <!-- Title Badge -->
  <g transform="translate(45, 55)">
    <text x="0" y="0" fill="#e4a347" font-family="'DM Sans', sans-serif" font-size="10" font-weight="700" letter-spacing="2">PLAN ARCHITECTURAL D'EXCEPTION</text>
    <text x="0" y="24" fill="#ffffff" font-family="'Playfair Display', serif" font-size="20" font-weight="500">Villa Belle Époque & Terrasse Mer</text>
    <text x="0" y="44" fill="#8ca094" font-family="'DM Sans', sans-serif" font-size="12">Superficie : 390 m² · Terrain paysager : 1 850 m²</text>
  </g>

  <g filter="url(#soft-glow)">
    
  <!-- Outer boundary -->
  <rect x="70" y="110" width="760" height="460" fill="#16221c" stroke="#2a3930" stroke-width="2" rx="4"/>

  <!-- Piscine à débordement (Haut-Gauche) -->
  <path d="M 70 110 L 370 110 L 370 270 L 70 270 Z" fill="#0d2e38" stroke="#38bdf8" stroke-width="1.5" stroke-dasharray="4,4"/>
  <text x="220" y="185" fill="#7dd3fc" font-family="'DM Sans', sans-serif" font-size="14" font-weight="600" text-anchor="middle">PISCINE À DÉBORDEMENT &amp; SOLARIUM</text>
  <text x="220" y="205" fill="#38bdf8" font-family="'DM Sans', sans-serif" font-size="11" text-anchor="middle">Bassin Miroir Chauffé au Sel · 12 x 5 m</text>

  <!-- Terrasse Panoramique (Bas-Gauche) -->
  <rect x="70" y="370" width="350" height="200" fill="#1b2821" stroke="#e4a347" stroke-opacity="0.3" stroke-width="1.5"/>
  <text x="245" y="465" fill="#fef3c7" font-family="'DM Sans', sans-serif" font-size="15" font-weight="600" text-anchor="middle">TERRASSE BAIE DES ANGES</text>
  <text x="245" y="485" fill="#9ca3af" font-family="'DM Sans', sans-serif" font-size="11" text-anchor="middle">85 m² · Vue Panoramique Mer</text>

  <!-- Grand Salon Riviera (Centre) -->
  <rect x="370" y="220" width="280" height="250" fill="#203328" stroke="#4ade80" stroke-opacity="0.3" stroke-width="1.5"/>
  <text x="510" y="340" fill="#f3f4f6" font-family="'DM Sans', sans-serif" font-size="16" font-weight="700" text-anchor="middle">GRAND SALON RIVIERA</text>
  <text x="510" y="362" fill="#9ca3af" font-family="'DM Sans', sans-serif" font-size="11" text-anchor="middle">68 m² · Marbre &amp; Colonnes Doriques</text>

  <!-- Suite Royale Mer (Droite) -->
  <rect x="650" y="110" width="180" height="460" fill="#1e2c24" stroke="#4ade80" stroke-opacity="0.3" stroke-width="1.5"/>
  <text x="740" y="330" fill="#f3f4f6" font-family="'DM Sans', sans-serif" font-size="15" font-weight="600" text-anchor="middle" transform="rotate(-90 740 330)">SUITE ROYALE FACE MER</text>
  <text x="740" y="355" fill="#9ca3af" font-family="'DM Sans', sans-serif" font-size="11" text-anchor="middle" transform="rotate(-90 740 355)">52 m² · Vue Mer &amp; Dressing</text>

  <!-- Structural walls -->
  <path d="M 370 110 L 370 470" stroke="#4b5563" stroke-width="6"/>
  <path d="M 650 110 L 650 570" stroke="#4b5563" stroke-width="6"/>
  <path d="M 70 370 L 650 370" stroke="#4b5563" stroke-width="6"/>

  </g>
</svg>